<?xml version="1.0" encoding="UTF-8"?>
<svg xmlns="http://www.w3.org/2000/svg" xmlns:xlink="http://www.w3.org/1999/xlink" width="500px" height="500px" viewBox="0 0 500 500" version="1.1">
<g id="surface1">
<path style=" stroke:none;fill-rule:nonzero;fill:rgb(100%,100%,100%);fill-opacity:1;" d="M 143 294.855469 C 136.285156 294.855469 130.429688 293.714844 125.429688 291.570312 C 120.429688 289.429688 116.285156 286.285156 113.144531 282.429688 C 109.855469 278.570312 107.429688 274 105.714844 268.714844 C 104 263.429688 103.285156 257.855469 103.285156 251.714844 C 103.285156 245.570312 104.144531 239.855469 105.714844 234.570312 C 107.429688 229.285156 109.855469 224.570312 113.144531 220.714844 C 116.429688 216.855469 120.570312 213.714844 125.429688 211.429688 C 130.285156 209.144531 136.285156 208 143 208 C 149.714844 208 155.570312 209.144531 160.570312 211.429688 C 165.570312 213.714844 169.714844 216.714844 173.144531 220.714844 C 176.429688 224.570312 178.855469 229.285156 180.570312 234.570312 C 182.144531 239.855469 183 245.570312 183 251.714844 C 183 257.855469 182.144531 263.429688 180.570312 268.714844 C 179 274 176.570312 278.570312 173.144531 282.429688 C 169.855469 286.285156 165.714844 289.429688 160.570312 291.570312 C 155.714844 293.855469 149.714844 294.855469 143 294.855469 Z M 143 277.570312 C 149 277.570312 153.285156 275.285156 155.855469 270.855469 C 158.429688 266.429688 159.714844 260 159.714844 251.714844 C 159.714844 243.429688 158.429688 237 155.855469 232.570312 C 153.285156 228.144531 149 225.855469 143 225.855469 C 137.144531 225.855469 132.855469 228.144531 130.285156 232.570312 C 127.714844 237 126.429688 243.429688 126.429688 251.714844 C 126.429688 260 127.714844 266.429688 130.285156 270.855469 C 132.855469 275.429688 137.144531 277.570312 143 277.570312 Z M 217 256.855469 C 211 255.144531 206.285156 252.570312 203 249.285156 C 199.570312 245.855469 198 240.855469 198 234.144531 C 198 226 200.855469 219.714844 206.714844 215 C 212.570312 210.429688 220.429688 208.144531 230.570312 208.144531 C 234.714844 208.144531 238.855469 208.570312 242.855469 209.285156 C 246.855469 210 251 211.144531 255.144531 212.714844 C 254.855469 215.429688 254.429688 218.429688 253.570312 221.429688 C 252.714844 224.429688 251.714844 227 250.570312 229.285156 C 248 228.285156 245.144531 227.285156 242.144531 226.429688 C 239 225.570312 235.714844 225.285156 232.429688 225.285156 C 228.855469 225.285156 226 225.855469 224 227 C 222 228.144531 221 229.855469 221 232.429688 C 221 234.714844 221.714844 236.429688 223.144531 237.429688 C 224.570312 238.429688 226.570312 239.285156 229.285156 240.144531 L 238.429688 242.855469 C 241.429688 243.714844 244.144531 244.714844 246.570312 246 C 249 247.285156 251 248.714844 252.714844 250.570312 C 254.429688 252.429688 255.714844 254.570312 256.714844 257.285156 C 257.714844 260 258.144531 263.285156 258.144531 267 C 258.144531 271 257.285156 274.570312 255.714844 278 C 254 281.429688 251.714844 284.429688 248.570312 286.855469 C 245.429688 289.429688 241.570312 291.285156 237.144531 292.855469 C 232.714844 294.285156 227.570312 295 221.855469 295 C 219.285156 295 217 294.855469 214.855469 294.714844 C 212.714844 294.570312 210.714844 294.285156 208.714844 293.855469 C 206.714844 293.429688 204.855469 293 202.855469 292.429688 C 201 291.855469 198.855469 291.144531 196.570312 290.285156 C 196.714844 287.429688 197.285156 284.429688 198.144531 281.570312 C 199 278.570312 200 275.714844 201.285156 273 C 204.855469 274.429688 208.144531 275.429688 211.285156 276.144531 C 214.429688 276.855469 217.714844 277.144531 221.144531 277.144531 C 222.570312 277.144531 224.285156 277 226 276.714844 C 227.714844 276.429688 229.429688 276 230.855469 275.285156 C 232.285156 274.570312 233.570312 273.714844 234.570312 272.570312 C 235.570312 271.429688 236.144531 270 236.144531 268.144531 C 236.144531 265.570312 235.429688 263.714844 233.855469 262.570312 C 232.285156 261.429688 230.144531 260.429688 227.429688 259.570312 Z M 273.144531 210.144531 C 277 209.570312 280.714844 209.144531 284.570312 209.144531 C 288.285156 209.144531 292.144531 209.429688 296 210.144531 L 296 254 C 296 258.429688 296.285156 262 297 264.855469 C 297.714844 267.714844 298.714844 270 300.144531 271.570312 C 301.570312 273.285156 303.429688 274.429688 305.570312 275.144531 C 307.714844 275.855469 310.285156 276.144531 313.144531 276.144531 C 317.144531 276.144531 320.429688 275.714844 323.144531 275 L 323.144531 210.144531 C 327 209.570312 330.714844 209.144531 334.429688 209.144531 C 338.144531 209.144531 342 209.429688 345.855469 210.144531 L 345.855469 289.855469 C 342.429688 291 337.855469 292.144531 332.285156 293.285156 C 326.714844 294.429688 320.855469 295 314.714844 295 C 309.285156 295 304 294.570312 299 293.714844 C 294 292.855469 289.570312 291 285.714844 288.285156 C 281.855469 285.570312 278.855469 281.429688 276.714844 276.144531 C 274.429688 270.855469 273.285156 263.714844 273.285156 254.855469 L 273.285156 210.144531 Z M 367.285156 293 C 366.714844 289 366.285156 285.144531 366.285156 281.285156 C 366.285156 277.429688 366.570312 273.429688 367.285156 269.429688 C 371.285156 268.855469 375.144531 268.429688 379 268.429688 C 382.855469 268.429688 386.855469 268.714844 390.855469 269.429688 C 391.429688 273.429688 391.855469 277.429688 391.855469 281.144531 C 391.855469 285.144531 391.570312 289 390.855469 293 C 386.855469 293.570312 382.855469 294 379.144531 294 C 375.144531 293.855469 371.285156 293.570312 367.285156 293 Z M 366.714844 177.714844 C 370.855469 177.144531 375 176.714844 379 176.714844 C 383.144531 176.714844 387.285156 177 391.570312 177.714844 L 390 256.144531 C 386.285156 256.714844 382.714844 257.144531 379.285156 257.144531 C 375.714844 257.144531 372 256.855469 368.429688 256.144531 Z M 366.714844 177.714844 "/>
<path style=" stroke:none;fill-rule:nonzero;fill:rgb(100%,100%,100%);fill-opacity:1;" d="M 250 35.714844 C 131.714844 35.714844 35.714844 131.714844 35.714844 250 C 35.714844 368.285156 131.714844 464.285156 250 464.285156 C 368.285156 464.285156 464.285156 368.285156 464.285156 250 C 464.285156 131.714844 368.285156 35.714844 250 35.714844 Z M 250 442.855469 C 143.429688 442.855469 57.144531 356.570312 57.144531 250 C 57.144531 143.429688 143.429688 57.144531 250 57.144531 C 356.570312 57.144531 442.855469 143.429688 442.855469 250 C 442.855469 356.570312 356.570312 442.855469 250 442.855469 Z M 250 442.855469 "/>
</g>
</svg>
